<svg width="112" height="19" viewBox="0 0 112 19" fill="none" xmlns="http://www.w3.org/2000/svg">
<path d="M11.247 14.435H4.255L2.967 18H0.759L6.555 2.061H8.97L14.743 18H12.535L11.247 14.435ZM10.649 12.733L7.751 4.637L4.853 12.733H10.649ZM19.362 7.742C19.7914 6.99067 20.42 6.37733 21.248 5.902C22.076 5.42667 23.019 5.189 24.077 5.189C25.2117 5.189 26.2314 5.45733 27.136 5.994C28.0407 6.53067 28.7537 7.28967 29.275 8.271C29.7964 9.237 30.057 10.364 30.057 11.652C30.057 12.9247 29.7964 14.0593 29.275 15.056C28.7537 16.0527 28.033 16.827 27.113 17.379C26.2084 17.931 25.1964 18.207 24.077 18.207C22.9884 18.207 22.03 17.9693 21.202 17.494C20.3894 17.0187 19.776 16.413 19.362 15.677V18H17.269V0.98H19.362V7.742ZM27.918 11.652C27.918 10.7013 27.7264 9.87333 27.343 9.168C26.9597 8.46267 26.4384 7.926 25.779 7.558C25.135 7.19 24.422 7.006 23.64 7.006C22.8734 7.006 22.1604 7.19767 21.501 7.581C20.857 7.949 20.3357 8.49333 19.937 9.214C19.5537 9.91933 19.362 10.7397 19.362 11.675C19.362 12.6257 19.5537 13.4613 19.937 14.182C20.3357 14.8873 20.857 15.4317 21.501 15.815C22.1604 16.183 22.8734 16.367 23.64 16.367C24.422 16.367 25.135 16.183 25.779 15.815C26.4384 15.4317 26.9597 14.8873 27.343 14.182C27.7264 13.4613 27.918 12.618 27.918 11.652ZM38.309 18.207C37.1283 18.207 36.055 17.9387 35.089 17.402C34.1383 16.8653 33.387 16.1063 32.835 15.125C32.2983 14.1283 32.03 12.9783 32.03 11.675C32.03 10.387 32.306 9.25233 32.858 8.271C33.4253 7.27433 34.192 6.51533 35.158 5.994C36.124 5.45733 37.205 5.189 38.401 5.189C39.597 5.189 40.678 5.45733 41.644 5.994C42.61 6.51533 43.369 7.26667 43.921 8.248C44.4883 9.22933 44.772 10.3717 44.772 11.675C44.772 12.9783 44.4807 14.1283 43.898 15.125C43.3307 16.1063 42.5563 16.8653 41.575 17.402C40.5937 17.9387 39.505 18.207 38.309 18.207ZM38.309 16.367C39.0603 16.367 39.7657 16.1907 40.425 15.838C41.0843 15.4853 41.6133 14.9563 42.012 14.251C42.426 13.5457 42.633 12.687 42.633 11.675C42.633 10.663 42.4337 9.80433 42.035 9.099C41.6363 8.39367 41.115 7.87233 40.471 7.535C39.827 7.18233 39.1293 7.006 38.378 7.006C37.6113 7.006 36.906 7.18233 36.262 7.535C35.6333 7.87233 35.1273 8.39367 34.744 9.099C34.3607 9.80433 34.169 10.663 34.169 11.675C34.169 12.7023 34.353 13.5687 34.721 14.274C35.1043 14.9793 35.6103 15.5083 36.239 15.861C36.8677 16.1983 37.5577 16.367 38.309 16.367ZM58.7019 5.396V18H56.6089V16.137C56.2103 16.781 55.6506 17.287 54.9299 17.655C54.2246 18.0077 53.4426 18.184 52.5839 18.184C51.6026 18.184 50.7209 17.9847 49.9389 17.586C49.1569 17.172 48.5359 16.5587 48.0759 15.746C47.6313 14.9333 47.4089 13.9443 47.4089 12.779V5.396H49.4789V12.503C49.4789 13.745 49.7933 14.7033 50.4219 15.378C51.0506 16.0373 51.9093 16.367 52.9979 16.367C54.1173 16.367 54.9989 16.022 55.6429 15.332C56.2869 14.642 56.6089 13.6377 56.6089 12.319V5.396H58.7019ZM64.7888 7.121V14.55C64.7888 15.1633 64.9192 15.6003 65.1798 15.861C65.4405 16.1063 65.8928 16.229 66.5368 16.229H68.0778V18H66.1918C65.0265 18 64.1525 17.7317 63.5698 17.195C62.9872 16.6583 62.6958 15.7767 62.6958 14.55V7.121H61.0628V5.396H62.6958V2.222H64.7888V5.396H68.0778V7.121H64.7888ZM91.9026 5.166C92.8839 5.166 93.7579 5.373 94.5246 5.787C95.2913 6.18567 95.8969 6.79133 96.3416 7.604C96.7863 8.41667 97.0086 9.40567 97.0086 10.571V18H94.9386V10.87C94.9386 9.61267 94.6243 8.65433 93.9956 7.995C93.3823 7.32033 92.5466 6.983 91.4886 6.983C90.3999 6.983 89.5336 7.33567 88.8896 8.041C88.2456 8.731 87.9236 9.73533 87.9236 11.054V18H85.8536V10.87C85.8536 9.61267 85.5393 8.65433 84.9106 7.995C84.2973 7.32033 83.4616 6.983 82.4036 6.983C81.3149 6.983 80.4486 7.33567 79.8046 8.041C79.1606 8.731 78.8386 9.73533 78.8386 11.054V18H76.7456V5.396H78.8386V7.213C79.2526 6.55367 79.8046 6.04767 80.4946 5.695C81.1999 5.34233 81.9743 5.166 82.8176 5.166C83.8756 5.166 84.8109 5.40367 85.6236 5.879C86.4363 6.35433 87.0419 7.052 87.4406 7.972C87.7933 7.08267 88.3759 6.39267 89.1886 5.902C90.0013 5.41133 90.9059 5.166 91.9026 5.166ZM111.942 11.215C111.942 11.6137 111.919 12.0353 111.873 12.48H101.799C101.876 13.722 102.297 14.6957 103.064 15.401C103.846 16.091 104.789 16.436 105.893 16.436C106.798 16.436 107.549 16.229 108.147 15.815C108.76 15.3857 109.19 14.8183 109.435 14.113H111.689C111.352 15.3243 110.677 16.3133 109.665 17.08C108.653 17.8313 107.396 18.207 105.893 18.207C104.697 18.207 103.624 17.9387 102.673 17.402C101.738 16.8653 101.002 16.1063 100.465 15.125C99.9282 14.1283 99.6599 12.9783 99.6599 11.675C99.6599 10.3717 99.9206 9.22933 100.442 8.248C100.963 7.26667 101.692 6.51533 102.627 5.994C103.578 5.45733 104.666 5.189 105.893 5.189C107.089 5.189 108.147 5.44967 109.067 5.971C109.987 6.49233 110.692 7.213 111.183 8.133C111.689 9.03767 111.942 10.065 111.942 11.215ZM109.78 10.778C109.78 9.98067 109.604 9.29833 109.251 8.731C108.898 8.14833 108.415 7.71133 107.802 7.42C107.204 7.11333 106.537 6.96 105.801 6.96C104.743 6.96 103.838 7.29733 103.087 7.972C102.351 8.64667 101.929 9.582 101.822 10.778H109.78Z" fill="white"/>
</svg>
