<svg width="53" height="19" viewBox="0 0 53 19" fill="none" xmlns="http://www.w3.org/2000/svg">
<path d="M5.854 18.161C4.796 18.161 3.84533 17.977 3.002 17.609C2.174 17.2257 1.52233 16.7043 1.047 16.045C0.571667 15.3703 0.326333 14.596 0.311 13.722H2.542C2.61867 14.4733 2.92533 15.1097 3.462 15.631C4.014 16.137 4.81133 16.39 5.854 16.39C6.85067 16.39 7.63267 16.1447 8.2 15.654C8.78267 15.148 9.074 14.504 9.074 13.722C9.074 13.1087 8.90533 12.6103 8.568 12.227C8.23067 11.8437 7.809 11.5523 7.303 11.353C6.797 11.1537 6.11467 10.939 5.256 10.709C4.198 10.433 3.347 10.157 2.703 9.881C2.07433 9.605 1.53 9.17567 1.07 8.593C0.625333 7.995 0.403 7.19767 0.403 6.201C0.403 5.327 0.625333 4.55267 1.07 3.878C1.51467 3.20333 2.13567 2.682 2.933 2.314C3.74567 1.946 4.67333 1.762 5.716 1.762C7.21867 1.762 8.44533 2.13767 9.396 2.889C10.362 3.64033 10.9063 4.637 11.029 5.879H8.729C8.65233 5.26567 8.33033 4.729 7.763 4.269C7.19567 3.79367 6.44433 3.556 5.509 3.556C4.635 3.556 3.922 3.786 3.37 4.246C2.818 4.69067 2.542 5.31933 2.542 6.132C2.542 6.71467 2.703 7.19 3.025 7.558C3.36233 7.926 3.76867 8.20967 4.244 8.409C4.73467 8.593 5.417 8.80767 6.291 9.053C7.349 9.34433 8.2 9.63567 8.844 9.927C9.488 10.203 10.04 10.64 10.5 11.238C10.96 11.8207 11.19 12.618 11.19 13.63C11.19 14.412 10.983 15.148 10.569 15.838C10.155 16.528 9.54167 17.0877 8.729 17.517C7.91633 17.9463 6.958 18.161 5.854 18.161ZM21.308 18L16.363 12.434V18H14.27V0.98H16.363V10.985L21.216 5.396H24.137L18.203 11.675L24.16 18H21.308ZM27.1879 3.349C26.7893 3.349 26.4519 3.211 26.1759 2.935C25.8999 2.659 25.7619 2.32167 25.7619 1.923C25.7619 1.52433 25.8999 1.187 26.1759 0.910999C26.4519 0.634999 26.7893 0.496999 27.1879 0.496999C27.5713 0.496999 27.8933 0.634999 28.1539 0.910999C28.4299 1.187 28.5679 1.52433 28.5679 1.923C28.5679 2.32167 28.4299 2.659 28.1539 2.935C27.8933 3.211 27.5713 3.349 27.1879 3.349ZM28.1999 5.396V18H26.1069V5.396H28.1999ZM33.8601 0.98V18H31.7671V0.98H33.8601ZM39.5203 0.98V18H37.4273V0.98H39.5203ZM47.5494 18.207C46.5834 18.207 45.7171 18.046 44.9504 17.724C44.1837 17.3867 43.5781 16.9267 43.1334 16.344C42.6887 15.746 42.4434 15.0637 42.3974 14.297H44.5594C44.6207 14.9257 44.9121 15.4393 45.4334 15.838C45.9701 16.2367 46.6677 16.436 47.5264 16.436C48.3237 16.436 48.9524 16.2597 49.4124 15.907C49.8724 15.5543 50.1024 15.1097 50.1024 14.573C50.1024 14.021 49.8571 13.6147 49.3664 13.354C48.8757 13.078 48.1167 12.8097 47.0894 12.549C46.1541 12.3037 45.3874 12.0583 44.7894 11.813C44.2067 11.5523 43.7007 11.1767 43.2714 10.686C42.8574 10.18 42.6504 9.52067 42.6504 8.708C42.6504 8.064 42.8421 7.47367 43.2254 6.937C43.6087 6.40033 44.1531 5.97867 44.8584 5.672C45.5637 5.35 46.3687 5.189 47.2734 5.189C48.6687 5.189 49.7957 5.54167 50.6544 6.247C51.5131 6.95233 51.9731 7.91833 52.0344 9.145H49.9414C49.8954 8.48567 49.6271 7.95667 49.1364 7.558C48.6611 7.15933 48.0171 6.96 47.2044 6.96C46.4531 6.96 45.8551 7.121 45.4104 7.443C44.9657 7.765 44.7434 8.18667 44.7434 8.708C44.7434 9.122 44.8737 9.467 45.1344 9.743C45.4104 10.0037 45.7477 10.2183 46.1464 10.387C46.5604 10.5403 47.1277 10.7167 47.8484 10.916C48.7531 11.1613 49.4891 11.4067 50.0564 11.652C50.6237 11.882 51.1067 12.2347 51.5054 12.71C51.9194 13.1853 52.1341 13.8063 52.1494 14.573C52.1494 15.263 51.9577 15.884 51.5744 16.436C51.1911 16.988 50.6467 17.425 49.9414 17.747C49.2514 18.0537 48.4541 18.207 47.5494 18.207Z" fill="white"/>
</svg>
