<svg width="92" height="19" viewBox="0 0 92 19" fill="none" xmlns="http://www.w3.org/2000/svg">
<path d="M11.489 6.661C11.489 7.995 11.029 9.10667 10.109 9.996C9.20433 10.87 7.81667 11.307 5.946 11.307H2.864V18H0.771V1.969H5.946C7.75533 1.969 9.12767 2.406 10.063 3.28C11.0137 4.154 11.489 5.281 11.489 6.661ZM5.946 9.582C7.11133 9.582 7.97 9.329 8.522 8.823C9.074 8.317 9.35 7.59633 9.35 6.661C9.35 4.683 8.21533 3.694 5.946 3.694H2.864V9.582H5.946ZM19.5873 18.207C18.4067 18.207 17.3333 17.9387 16.3673 17.402C15.4167 16.8653 14.6653 16.1063 14.1133 15.125C13.5767 14.1283 13.3083 12.9783 13.3083 11.675C13.3083 10.387 13.5843 9.25233 14.1363 8.271C14.7037 7.27433 15.4703 6.51533 16.4363 5.994C17.4023 5.45733 18.4833 5.189 19.6793 5.189C20.8753 5.189 21.9563 5.45733 22.9223 5.994C23.8883 6.51533 24.6473 7.26667 25.1993 8.248C25.7667 9.22933 26.0503 10.3717 26.0503 11.675C26.0503 12.9783 25.759 14.1283 25.1763 15.125C24.609 16.1063 23.8347 16.8653 22.8533 17.402C21.872 17.9387 20.7833 18.207 19.5873 18.207ZM19.5873 16.367C20.3387 16.367 21.044 16.1907 21.7033 15.838C22.3627 15.4853 22.8917 14.9563 23.2903 14.251C23.7043 13.5457 23.9113 12.687 23.9113 11.675C23.9113 10.663 23.712 9.80433 23.3133 9.099C22.9147 8.39367 22.3933 7.87233 21.7493 7.535C21.1053 7.18233 20.4077 7.006 19.6563 7.006C18.8897 7.006 18.1843 7.18233 17.5403 7.535C16.9117 7.87233 16.4057 8.39367 16.0223 9.099C15.639 9.80433 15.4473 10.663 15.4473 11.675C15.4473 12.7023 15.6313 13.5687 15.9993 14.274C16.3827 14.9793 16.8887 15.5083 17.5173 15.861C18.146 16.1983 18.836 16.367 19.5873 16.367ZM30.8953 7.443C31.2633 6.72233 31.7846 6.16267 32.4593 5.764C33.1493 5.36533 33.9849 5.166 34.9663 5.166V7.328H34.4143C32.0683 7.328 30.8953 8.60067 30.8953 11.146V18H28.8023V5.396H30.8953V7.443ZM39.9353 7.121V14.55C39.9353 15.1633 40.0657 15.6003 40.3263 15.861C40.587 16.1063 41.0393 16.229 41.6833 16.229H43.2243V18H41.3383C40.173 18 39.299 17.7317 38.7163 17.195C38.1337 16.6583 37.8423 15.7767 37.8423 14.55V7.121H36.2093V5.396H37.8423V2.222H39.9353V5.396H43.2243V7.121H39.9353ZM50.8893 7.121H48.2443V18H46.1513V7.121H44.5183V5.396H46.1513V4.499C46.1513 3.08833 46.5116 2.061 47.2323 1.417C47.9683 0.757666 49.1413 0.427999 50.7513 0.427999V2.176C49.8313 2.176 49.1796 2.36 48.7963 2.728C48.4283 3.08067 48.2443 3.671 48.2443 4.499V5.396H50.8893V7.121ZM58.8266 18.207C57.6459 18.207 56.5726 17.9387 55.6066 17.402C54.6559 16.8653 53.9046 16.1063 53.3526 15.125C52.8159 14.1283 52.5476 12.9783 52.5476 11.675C52.5476 10.387 52.8236 9.25233 53.3756 8.271C53.9429 7.27433 54.7096 6.51533 55.6756 5.994C56.6416 5.45733 57.7226 5.189 58.9186 5.189C60.1146 5.189 61.1956 5.45733 62.1616 5.994C63.1276 6.51533 63.8866 7.26667 64.4386 8.248C65.0059 9.22933 65.2896 10.3717 65.2896 11.675C65.2896 12.9783 64.9983 14.1283 64.4156 15.125C63.8483 16.1063 63.0739 16.8653 62.0926 17.402C61.1113 17.9387 60.0226 18.207 58.8266 18.207ZM58.8266 16.367C59.5779 16.367 60.2833 16.1907 60.9426 15.838C61.6019 15.4853 62.1309 14.9563 62.5296 14.251C62.9436 13.5457 63.1506 12.687 63.1506 11.675C63.1506 10.663 62.9513 9.80433 62.5526 9.099C62.1539 8.39367 61.6326 7.87233 60.9886 7.535C60.3446 7.18233 59.6469 7.006 58.8956 7.006C58.1289 7.006 57.4236 7.18233 56.7796 7.535C56.1509 7.87233 55.6449 8.39367 55.2616 9.099C54.8783 9.80433 54.6866 10.663 54.6866 11.675C54.6866 12.7023 54.8706 13.5687 55.2386 14.274C55.6219 14.9793 56.1279 15.5083 56.7566 15.861C57.3853 16.1983 58.0753 16.367 58.8266 16.367ZM70.1345 0.98V18H68.0415V0.98H70.1345ZM74.7827 3.349C74.384 3.349 74.0467 3.211 73.7707 2.935C73.4947 2.659 73.3567 2.32167 73.3567 1.923C73.3567 1.52433 73.4947 1.187 73.7707 0.910999C74.0467 0.634999 74.384 0.496999 74.7827 0.496999C75.166 0.496999 75.488 0.634999 75.7487 0.910999C76.0247 1.187 76.1627 1.52433 76.1627 1.923C76.1627 2.32167 76.0247 2.659 75.7487 2.935C75.488 3.211 75.166 3.349 74.7827 3.349ZM75.7947 5.396V18H73.7017V5.396H75.7947ZM84.8588 18.207C83.6782 18.207 82.6048 17.9387 81.6388 17.402C80.6882 16.8653 79.9368 16.1063 79.3848 15.125C78.8482 14.1283 78.5798 12.9783 78.5798 11.675C78.5798 10.387 78.8558 9.25233 79.4078 8.271C79.9752 7.27433 80.7418 6.51533 81.7078 5.994C82.6738 5.45733 83.7548 5.189 84.9508 5.189C86.1468 5.189 87.2278 5.45733 88.1938 5.994C89.1598 6.51533 89.9188 7.26667 90.4708 8.248C91.0382 9.22933 91.3218 10.3717 91.3218 11.675C91.3218 12.9783 91.0305 14.1283 90.4478 15.125C89.8805 16.1063 89.1062 16.8653 88.1248 17.402C87.1435 17.9387 86.0548 18.207 84.8588 18.207ZM84.8588 16.367C85.6102 16.367 86.3155 16.1907 86.9748 15.838C87.6342 15.4853 88.1632 14.9563 88.5618 14.251C88.9758 13.5457 89.1828 12.687 89.1828 11.675C89.1828 10.663 88.9835 9.80433 88.5848 9.099C88.1862 8.39367 87.6648 7.87233 87.0208 7.535C86.3768 7.18233 85.6792 7.006 84.9278 7.006C84.1612 7.006 83.4558 7.18233 82.8118 7.535C82.1832 7.87233 81.6772 8.39367 81.2938 9.099C80.9105 9.80433 80.7188 10.663 80.7188 11.675C80.7188 12.7023 80.9028 13.5687 81.2708 14.274C81.6542 14.9793 82.1602 15.5083 82.7888 15.861C83.4175 16.1983 84.1075 16.367 84.8588 16.367Z" fill="white"/>
</svg>
